<?xml version="1.0" encoding="UTF-8"?>
<svg id="Ebene_1" data-name="Ebene 1" xmlns="http://www.w3.org/2000/svg" viewBox="0 0 1080 1080">
  <defs>
    <style>
      .cls-1 {
        fill: #fff;
      }

      .cls-2 {
        fill: #c4c4c4;
      }
    </style>
  </defs>
  <g>
    <path class="cls-1" d="M325.94,431.44c.29.34-.7,2.62,1.36.34.06-.71-1.22-.17-1.36-.34ZM431.75,333.5l-141.8-20.46c-1.62-.42-3.86,1.28-5.18,1.02-1.75-.34-9.43-10.33-11.09-10.65-.97-.19-3.81,1.92-4.6,2.7-3.73,3.65-4.26,9.09-5.09,14-2.08,12.23-3.12,24.76-4.87,37.05l-124.15-24.42-.44,21.77,42.56,9.28v.04l19.43,4.22-19.39-2.58.76,32.9,71.23,19.14.56.27-.36,3.2.94.25-46.36,328.84c-.59,8.72.19,15,8.85,18.74,4.68-1.38,9.01-4.88,13.87-5.41l142.61,23.86c7.57.1,11.59-6.69,12.52-13.44l59.33-421.19c.59-8.15.42-17.37-9.33-19.13ZM265.26,534.35l6.81.69c.27,1.19-1.05.43-1.29.73-.18.22,1.26,3.86-.07,5.4l6.5-2.08c4.45.32,8.67.94,12.97,2.04l-2.46,19.45c.36,3.45,8.92.11,4.85,4.8-4.61.29-9.03-.4-13.68-.36-.2-1.41,1.68-.02,2.08-1.1,1.67-4.51.7-13.9,2.61-18.96-.57-2.21-18-2.77-18.99-3.81-.62-.64,1.09-5.44.67-6.8ZM364.79,746.31l-19.05-3.43c-.68-.71,2.05-18.06,2.64-19.45.44-1.03.76-1.9,2.1-1.65l-3.12,19.8c.87,1.14,13.29,2.75,15.78,3.35,1.16.28,1.99-.66,1.65,1.38ZM415.98,410.69c-3.39,1.01-6.77-.97-10.27-.38l2.63-.77,2.83-21.72-19.09-2.73-3.28,20.96c.1,2.73,4.28.5,6.08,2.53,1.55,1.74-.94,4.29-.76,4.45,1.22,1.13,2.25-1.16,2.37-1.2,5.75-1.83,12.49-.47,18.43.54.96.16,1.13-.48,1.03,1.01-.84,12.45-4.42,24.91-5.44,37.39l-2.07.44,2.05,1.03-28.07,199.57-.97,1.06-9.15-1.28c2.33.31,2.27-.54,2.63-2.47,11.56-62.01,15.53-127.19,26.6-189.48l.08-4.34-19.08-2.73-6.12,43.18-2.75.44,2.74,1.03-3.51,24.44c-3.51,2.13-.61,1.19-.62,4.07-.01,3.73-2.32,19.64-3.36,23.29-.46,1.63-.53,1.04-2.06,1.02l2.03,1c-1.41,3.03-3.07,24.8-4.17,25.48-.7.43-2.38-.06-3.32.09l3.45,1.8c-1.36,3.04-2.59,23.87-3.46,24.77-.25.27-3.83-.17-4.76.02.4,1.78,2.13.41,3.1,1.26,2.16,1.93-.11,8.5-.41,11.38-.32,2.98-.32,2.09-.64,3.48-.39,1.67-.43,9.71-1.47,10.36-.96.6-5.2-.24-6.72.09-.19,2.28.28.94,1.15.98,1,.05,5.36.23,5.62,1.47l-2.02,16.18c2.22,2.23,5.97-.56,6.12,3.57.01.31-1.97-.13-.64,2.34,1.8-1.74,5.08-.49,6.49-.82.42-.1.3-1.22.7-1.27.33-.04,5.15,1.43,6.36,1.66,1.82.34,3.68,1.05,3.91,1.08.64.11,2.79-.55,3.67-.65-1.25,4.5-4.05,36.85-5.52,38.09-.67.56-7.37-.22-7.48-1.01.25-4.07,5.63-33.13,4.17-34.04-2.41-1.51-15.49-1.78-19.12-3.05v2.73c-2.33-1.17-4.99-.57-7.5-.67.65,1.55,5.29.91,6.17,1.73.42.4.69.72.68,1.33l-3.45,24.2c-3.09-1.04-6.32-.64-9.53-.7-.13-1.38,1.8-.25,2.63-.76.9-.56,3.25-20.07,2.52-21.09-.68-.95-16.32-2.57-18.79-3.36-.72,1.25-.44,6.58-.68,6.82-.23.24-5.07-.17-6.14,0l2.73-23.17-19.78-2.73c.11.99-.47,6.54-.71,6.78-.37.36-4.35-.18-5.42.04.62,2.29,4.02-.4,3.41,2.03,1.32.34,0-1.5,1.35-1.35,1.33,2.75-2.5,13.45-.69,14.67,1.16.79,5.87.92,7.51,1.01.19,1.12-1.81.82-2.04,1.7-.62,2.41,3.02,1,4.31.33.6-.31.33-2.06,2.51-1.35l-1.36,1.35,5.45-.67-1.36,1.35c3.2,0,6.4,1.35,9.54.69.8,1.05-2.05,11.11-1.39,13.86.45,1.87,7.48-.62,6.17,5.22,2.98-2.34,6.79-.1,9.25-.02.45.01.03-1.53.63-1.34,2.53.82,2.79,1.05,5.68,1.59.12.02.12,1.09.41,1.09.6-.02,3.67-1.48,3.79-1.32-2.57,7.36,4.38,3.74,6.15,5.46.15.15-1.29,2.97-.68,4.08,1.57-.76,3.4-.04,4.46-.1.43-.02.16-1.19.63-1.17,1.09.04,1.34,1.62,2.05-.77,3.18,2.07,8.4,2.31,12.27,2.04l-.33,1.36,2.04-.67c-1.47,3.01-2.53,24.29-3.4,25.21-.22.23-2.65-.14-3.41.01-.56,2.75,2.02-.03,2.73.68.3.3-.13,1.37-.67,1.73-1.62,1.08-24.88-4.87-25.92-3.78l-2.73,23.86h-8.18l5.68,1.45,1.82,1.95-103.64-17.72.35-2.05c2.88.28,16.86,4.11,18.62,2.61.29-2.6,3.33-18.67,2.57-19.69l-18.81-3.36c.51-1.89.43-3.96.7-5.79.14-.94-.46-1.19.96-.99.89.12,4.82.62,5.04.76.57.38,1.32,2.67-.56,1.94-.32,1.22.87.39,1.36.68.67.4-2.6.98-1.34,2.69.06.07,1.6.72,1.69.72.29.02.24-1.15.66-1.24,4.82-1,9.6.81,14.22,1.74.76.15,2.36-.58,2.45-.49,1.91,1.85-2.48,18.99-2.1,22.71-.7,2.33-4.46.04-5.35,1.8,2.84.37,5.61.33,8.46.78,3.51.56,7.82,1.98,11.09,2.44.9.12,1.7-.52,2.6-.5l-.34,1.37,2.73-1.18,4.1-29.48c-5.63-.22-11.92-2.57-17.42-2.78-3.05-.11-1.96,1.29-3.34,1.47-2.37.31-5.4-.32-7.88-.06l2.73-.67,2.43-19.8c-1.05-1.37-18.1-2.71-18.77-3.41-.71-.74.85-5.41.65-6.79l6.82.69-2.04,5.44c2.59,1.1,3.53-1.19,3.74-1.25.38-.12,6.31.64,7.1.75,1.34.18,9.04,1.47,9.33,1.85l-1.76,16.37,7.49.7c-1.2,1.55-2.66,1.3-2.04,4.08,5.33-2.22,10.63-.4,16.05.45,1.5.23,2.8-.89,3.67.56l-5.4,34.42,4.78-.67-.7,1.36c3.63-1.29,5.54,1,8.88.01l-.7,1.35c3.4,1.41,3.53-.7,3.77-.7,1.15-.01,2.14,1.94,3.73,1.38l6.15-42.25c-2.68.1-18.84-3.67-19.77-2.72-.19.2-.13,4.84-.76,5.37-.58.49-5.44-.19-6.75.07.56-1.08,1.09-1.84,1.32-3.11.41-2.23,2.5-17.81,2-18.6l-18.61-3.51c-1.11,2.77-5.83.84-8.57,1.37-.26-1.05,1.01-.53,1.39-1.13.54-.85,3.37-19.24,2.67-19.97l-19.06-2.76c.81-8.72,1.28-6.49,8.86-6.12.23,1.31-1.46.3-1.95.75-.33.32-.57,4.29-.09,4.69,1.3,1.1,1.41-1.28,1.65-1.28,1.6.02,4.29,1.58,4.82-.75,1.09,1.96,12.21,2.23,12.54,2.79,1.04,3.48-2.72,14.13-1.92,16.54.56,1.68,6.35,1.91,8.13,1.8.19,1.03-1.13.66-1.66,1.39-3.73,5.19,3.82,1.02,6.09.95.93-.03,6.18,1.42,7.61,1.64,1.56.25,3.48.56,5,.1l-1.39,13.89,6.18,1.11-.69,4.08c6.37-2.83,13.13.56,19.78.69l-6.23,43.87-2.63,2.47c1.83-1.16,2.81.4,4.46.65,1.72.26,3.76-.3,5.29.05.22.05,1.44,2.52,3.87,1.34l-1.35-1.35c2.48-.79,2.01,1.42,3.07,2.03l3.06-1.35-1.36,1.35c2.93.96,3.75.68,5.02-2.11l7.25-52.41c-2.66.33-18.97-3.57-19.78-2.73-.21.22.04,5.39-.75,6.06-.6.52-6.64-.2-8.1.07-.19-1.35,1.48-.09,2.08-1.11.45-.77,2.55-15.62,2.67-17.64.08-1.2.18-2.45-.08-3.64l-18.99-3.5c-.72,1.24-.45,6.57-.68,6.82-.25.25-5.69-.18-6.83-.01l3.4-21.78c-8.81-1.74-17.56-3.66-26.58-2.76l3.41-21.11-19.09-2.73.69-7.5c.96.79,5.88,1.11,6.11,1.39.14.16.05,4.12,0,4.33-.19.8-1.63-.06-1.34,1.09,2.49-.42,4.63-1.79,7.32-1.83.43-.01,8,1.05,8.61,1.2.5.12.35,1.1.76,1.19.98.21,3.63-1.48,3.78,1.14l-2.06,17.38,8.17.7-2.72.68c1.81,2.94-.95,1.01-.68,3.4l6.44-1.72,7.87,1.04c.21-4.73,1.43-9.38,1.95-14.07.21-1.84,1.39-7.95.14-8.8l-25.27-3.72c.48-3.27,3.78-18.61,2.43-20.49-1.01-1.4-15.55-1.67-17.47-2.98-1.61-1.1-.07-5.49.05-7.2,5.89,1.43,7.12.12,5.45,6.82,2.21.32,3.79-1.48,5.69-1.82.55-.1,10.05,1.17,11.01,1.44,1.04.29,1.98.9,3.05,1.12-.6,3.96-1.51,8-1.96,11.99-.11.96.36,1.89.28,2.61-.11.97-1.9,2.24-.74,3.8,1.2,1.61,7.22-.37,5.85,3.69-1.95-.73-1.9.6-.24,1.65,6.51-2.54,12.58-.48,19.31.08.47.54-2.03,12.6-1.31,13.53,1.35,1.76,8.45-1.29,6.1,4.16,1.92-.9,4.89-.43,6.5-.83.34-.08.11-1.81,2.36-1.2l-.33,1.38c1.4-.2,4.08-.16,4.66-1.53.79-1.88,2.31-14.48,2.48-17.25.08-1.2.18-2.45-.08-3.64l-18.99-3.5c-.59,1.27-.42,7.23-.68,7.5-.2.2-4.89.13-5.5-.3-2.05-1.44,2.29-18.2,1.8-21.54l-25.63-4.75c-.02-3.09,3.47-19.1,2.44-20.49l-18.82-3.73,1.05-6.45,5.79.69c.59,2.53-2.18,7.17,1.37,6.13l-.69-1.36c6.44-1.46,12.17,1.18,18.41.68.73,2.97-3.2,20.04-2.05,21.13.2.19,4.91-.1,5.46.69.8,1.17-2.53,3.63-.33,4.08,1.32.27,2.71-1.14,4.12-1.36,2.61-.39,1.45-.25,2.67-.61.33-.1,5.54.7,6.25.83,2.35.41,4.62,1.3,7.06,1.15-.28,2.29-2.49,10.99-2,12.51.53,1.62,7.03,1.86,8.82,1.8.22,1.28-1.31.31-1.9.8-.32.26-.32,1.93-.83,2.59,2.18-.39,3.7-1.89,6.14-1.36l-1.36-1.35c1.83-.92,2.15,1.38,2.46,1.4,1.24.08,2.89-1.08,4.35-.72l-2.04,1.35c1.08-.02,3.12.36,3.79-.63,1.59-2.35,1.92-18.64,3.03-22.54-4.76.55-13.98-3.34-18.05-2.76-2.59.38-1.77,5.42-2.44,7.5l-6.11-.65,2.74-21.81-18.41-2.73c-.19-1.13,1.65-.73,2.4-.71,6.08.22,11.16-1.53,17.63-.57,1.64.24,3.19.87,4.79,1.21,1.52,1.02-2.07,10.99-.86,12.93,1.09,1.76,7.42-1.3,6.72,4.19.41.3,5.38-1.89,6.67-1.93,1.97-.07,3.5,2.56,5.65.11l3.36-21.35-19.77-3.42c-1.03,6.91.86,9.36-7.51,7.5l3.14-21.15c-1.12-1.42-15.96-2.6-18.81-3.39-.19-1.13,1.65-.73,2.4-.71,1.54.06,2.99.63,4.14.65,3.12.04,4.3-2.74,7.77-1.98l-1.36-1.35c3.18-.78,1.59,1.55,2.05,2.04.23.24,4.14-1.07,4.55-1.54,1.46-1.64,2.27-17.59,2.91-20.93-3.09.07-17.49-3.64-19.11-2.46l-2.68,19.81c.39,2.88,3.7,1.08,5.45,2.04-1.08,2.94-1.45.94-2.96,1.22-.93.18-1.52.94-2.68.98-2.19.06-5.47-1.05-7.99-.49.42-.92,1.07-1.27,1.33-2.42.46-1.98,2.61-17.92,2-18.63l-19.01-2.81c.98-1.21.43-6.6,1.8-6.86.79-.15,4.95.8,5.42,1.38.72.91-1.73,4.28-.4,5.48,1.15,1.03,1.4-1.18,2.19-1.56.94-.45,3.1-.87,4.2-.93,2.22-.11,9.04,2.08,12,2.21,4.28.19,7.23-.6,10.85-1.36,4.33-.92,5.2.07,8.64.19.15,0,.94-1.65,2.39-1.67l2.69-20.72-19.77-2.72-2.79,20.67c.33,1.47,5.1.79,6.19,1.46-1.14.86-4.41,1-5.8,1.01-2.04.03-7.02.9-7.18-1.68l2.7-19.37-19.04-2.79.69-7.49c1.14.85,5.59.74,6.1,1.4.19.24-1.02,4.92.04,6.09,1.05.25.35-.9,1.17-1.32.38-.2,5.65-2.11,5.97-2.11.53,0,.23,1.1.67,1.25.88.31,4.92,1.19,3.78-.54h.66c-.24,2.19.79.69,1.59.92,2.49.73,4.1.95,6.27,1.8.57.23.19-1.45.64-1.36,1.07.22,6.51,2.77,7.19,2.05.2-.21-.21-1.6.03-2.03.13-.23,3.98-.18,5.06-.41,1.03-.22,1.75-1.38,2.98-.83.16.08,1.02,2.51,2.84,1.91,2-7.23,2.53-14.93,3.33-22.42-3.06-.49-17.3-3.75-19.06-2.5-1.04.74-2.16,17.27-3.19,19.84l2.56,1.32c-.96,2.23-7.52.41-9.55.34l3.12-20.46c-2.4-1.41-18.01-2.38-18.71-3.48-.82-1.3.83-5.05.6-6.72,1.24,1.15,4.85.31,5.38.75.51.42,1.55,5.35-.61,5.04,3.04,2.87,3.14-.01,4.06-.62.22-.14,4.89-1,5.14-.94.42.1.28,1.05.78,1.18,3.15.81,9.82.58,14.58,1.71,1.24.29,3,1.63,3.76,1.73.31.04.31-.99.48-1.05,1.38-.49,2.79-.5,3.92-2.01l-1.36-1.02c2.27-.45,1.86,1.44,4.05,1.77,1.9.29,3.63-.44,5.49.27l2.09-22.17-19.13-3.04-2.73,21.81,2.73.67-10.91-.68,1.97-1.78,2.12-19.34-19.09-2.73c.86-1.6.29-5.04.99-6.17.87-1.4,5.39.74,7.19.04.29,1.13-1.16.28-1.36,1.13-.13.55-.4,2.99-.41,3.59-.02,2.47,1.98.42,3.37-.09.89-.33,2.64-1.3,2.81-1.3,2.05-.08,14.77,2.04,17.25,2.62.97.23,1.87.8,2.88.89l-.68,1.33c3.16.54,3.88-1.87,6.83-2.05l-.69-1.35c1.91-.86,2.07,1.33,2.48,1.39,1.18.19,4.63-1.26,5.71-.03-.7-.85,3.29-18.96,2.73-21.81l-19.13-2.44-2.99,20.21c-.86,1.28-5.55.39-7.21.63l3.42-21.12-19.1-2.73.68-6.82c1.18-.18,6.7.57,6.79,1.7.04.51-1.87,2.83-.79,4.36l-1.22.75c1.17-.28,3.44-.51,4.43-.86.19-.07,2.04-1.78,2.19-1.86,2.03-1.06,8.65.84,10.77,2.05l.36-1.35c2.35,2.03,6.21.01,8.65,2.22.75.68.73,2.42.88,2.53,1.2.87,6.06-3.66,7.82-3.43.32.04.3,1.33.79,1.42,1.38.26,3.41-.94,4.98-.74l2.11-20.75-19.12-3.08c-.61,2.6-2.02,19.7-2.76,20.41-.71.68-5.47-.55-6.79-.65.79-2.54,3.5-20.38,2.74-21.12l-18.42-2.04.69-7.51c1.12.83,5.62.78,6.1,1.42.13.17-.64,3.65-.73,4.27-.05.4-1.1,1.49.43,1.82,1.67.35,3.78-3.59,8.73-3.16,4.58.39,6.55,1.13,11.76,1.2.39.01.15,1.24.7,1.29.82.08,1.91-1.78,1.65.66.31.55,1.37-2.73,2.72-1.35.29.3-.85,1.61-.55,1.95.65.71,2.06-.79-.13,2.81.93.74,8.31-3.42,9.2-3.4,1.23.03,2.48,2.38,4.69.74,1.23-.91,3.16-22.27,3.77-25.52-.15-.61-.53-.82-1.08-1-4.85-1.62-12.82-.89-17.94-2.85l-3.42,25.22-8.86-.69c-.21-1.25,1.24-.37,1.89-.8,1.1-.72,2.86-21.34,3.57-24.41l-19.1-2.73c-.17-.17.51-4.61.69-4.77.28-.25,6.16,1.35,7.49.69.19,1.3-1.4.39-2.04.71-.15.07.59,2.58,0,3.37l6.13-2.05-1.01-1.36,22.83,2.74c.24,1.04-.88.38-1.32,1.18-.44.79-1.03,3.59.3,3.57.26,0,4.21-2.59,4.35-2.81.1-.16-.52-.9-.6-1.26.88-.63,7.74,1.53,9.19,1.72,2.28.29,6.42-.19,8.78.32.52.11.41,1.3.74,1.28,1.1-.04,2.92-1.16,4.47-.59.29,1.13-.98.36-1.23.98-.16.4.18,2.97-.13,3.78l5.45-2.05-1.36-2.03c2.14.24,4.3.48,6.44.75.84.1,1.48.86,2.08.95,1.99.27,5.11-2.03,4.44,1.7l5.46-1.36c-1.07,1.01-.23,1.92,1.03,2.05.22.02.83-2.55,3.73-1.36l-2.72.68c-.31,1.12,1.27.34,1.41,1.07.21,1.06-.41,2.06-.73,3l6.14-2.37.68-1.02-2.05-.68c2.17-1.1,2.96,1.38,3.15,1.39,1.14.1,2.25-.96,3.83-.6.98.23,2.16,1.7,2.92,1.93.19.06.64-2.42,3.05-1.36l-2.04,1.35c2.18.26,3.65.98,5.45-.68l-3.35,27.89,6.08.75-.68,2.71c2.11-.23,2.52-1.99,5.02-1.99,1.6,0,14.69,2,15.14,2.63,1.44,2-2.73,21.36-3.07,24.96ZM327.3,431.78c.06-.71-1.22-.17-1.36-.34.29.34-.7,2.62,1.36.34Z"/>
    <path d="M520.25,764.04c-.29-.15-.52-.4-.68-.68.28.11.51.44.68.68Z"/>
    <path d="M521.62,764.72c-.38-.18-.57-.63-.68-.68l.68.68Z"/>
    <path d="M522.98,765.4c-.38-.19-.58-.63-.68-.68l.68.68Z"/>
    <path d="M544.8,794.7c-.33-.07-.64-.36-.68-.68.35.08.62.31.68.68Z"/>
    <path d="M544.8,796.75c-.22-.29-.77-.21,0-.68v.68Z"/>
    <path class="cls-1" d="M677.64,443.82c1.08,3.63-3.67,20.25,3.21,19.43.73-.09,5.39-7.57,10.36-8.48,60.84,6.7,121.65,16.81,182.66,22.93,7.61.76,15.45,1.83,23.07,2.16,8.66.38,19.02-.98,27.33-.05,1.02.11,2.1.14,2.36,1.38l-62.58,20.26c-37.42,7.64-77.41,11.95-115.69,13.17-27.31.87-66.93,2.32-93.34-.81-6.77-.8-19.22-1.86-22.59-8.08-3.25-5.99-4.15-19.19-4.46-26.21-.45-10.07.39-20.28.03-30.36,4,2.31,2.56-2.05,4.77-4.44-3.26-1.02.62-6.36.59-6.78-.16-2.11-1.2-1.69,1.18-3.76l43.1,9.64Z"/>
    <path class="cls-1" d="M361.39,412.36l7.51-56.57,19.13,3.05-7.17,55.62c-.11.19-3.84.58-4.14.54-1.17-.17-1.89-1.28-2.71-1.29-.44,0-4.27,2.58-5.45,2.73-1.52-.73-.15-2.42-.97-3.05-1.39-1.06-4.46-1.04-6.19-1.02Z"/>
    <path class="cls-1" d="M362.76,355.11c-1.5,4.57-4.01,37.52-5.51,38.79-.51.43-10.78-2.08-12.56,2.09-1.73-1.04.04-2.42-.34-4.07-9.45,1.37-5.72-5.27-4.91-11.4.21-1.59-.91-.7-1.91-.88l2.08-1.09,3.37-26.17,19.78,2.73Z"/>
    <path class="cls-1" d="M402.92,449.79c-.34.29-1.62-.18-2.15.07-.68.32-.51,1.27-.81,1.26-2.33-.11-4.49-1.05-7.31-.21-1.28.38-1.61,2.19-3.98,1.66l.63-4.03c-1.56-.98-5.49-.15-6.04-1.85l4.73-33.64,19.48,3.38-4.54,33.37Z"/>
    <path class="cls-1" d="M337.49,533.7l-2.7,23.14c-1.33.13-1.71-.98-3.06-1.28-1.01-.22-3.21.84-4.43.6l1.36-1.35c-2.2-.65-1.78.96-2.89,1.55-5.77,3.09-2.91-.42-4.59-1.91-1.24-1.1-5.06-.6-5.87-1.65-.56-.73,1.28-10.26,1.72-11.98-.97-1.99-3.07,1.09-2.69-1.69,4.88,1.77,2.25-6.58,4.05-7.89,1.51-1.1,16.05,2.55,19.11,2.46Z"/>
    <path class="cls-1" d="M344.96,479.9c-.25,3.14-1.83,21.01-3.3,22.14-.53.41-6.17-1.39-7.54-1.07l.69,1.35c-1.04.55-3.01-.1-3.66.04s-.07,1.96-1.79,1.33c.77-5.32-5.4-3.23-6.54-4.74-.86-1.15,2.15-11.8,1.76-12.28-.32-.4-3.37.23-3.41-1.36,5.87,2.09,2.79-6.5,4.72-7.89,1.65-1.18,16,2.27,19.07,2.5Z"/>
    <path class="cls-1" d="M357.28,580.72c-.56,2.84-2.45,22.47-3.4,23.15-.11.08-1.91-1-2.73-.69l.69-1.35h-2.05s.69,1.35.69,1.35c-.3.2-6.07-.97-7.17-.55-.21.08-3.08,4.24-2.1-.2.33-1.51,1.78-.83,1.76-1.97l-7.9-1.32,1.76-15.04c-1.32.54-4.68.9-5.44-.68,8.5,1.98,5.04-4.33,6.13-5.46.79-.82,17.21,2.47,19.75,2.75Z"/>
    <path class="cls-1" d="M356.62,398.73c-1.54,6.27-1.01,14.76-2.78,20.74-.34,1.16-.67,1.71-1.66,2.43-.66-2.64-2.45-.79-4.1-1.01-.81-.1-1.78-1.46-3.05-1.03l1.36,1.35c-1.24.08-2.69.14-3.85.57-.75.27-1.45,2.54-2.28,1.48-.1-.13-.16-3.3,0-3.37.64-.32,2.24.6,2.04-.7l-8.18-.69,2.73-22.49,19.78,2.73Z"/>
    <path class="cls-1" d="M334.11,529.58l.69-1.35c-.55-.38-6.8,1.03-7.68,1.4-.78.33-.13,1.87-1.87,1.32l.68-4.08c-1.16.12-6.26-.19-6.74-.76-1.08-1.28,2.85-19.46,2.65-22.42,5.47,1.71,13.48,1.23,18.62,2.85.53.17.9.4,1.07.95-1.86,6.01-1.08,14.51-2.79,20.25-.65,2.19-2.91,1.48-4.64,1.84Z"/>
    <path class="cls-1" d="M347.05,655.65c-.42.38-3.21-.89-2.72,1.37h-.66c.26-2.26-.76-.7-2.4-.69-3.22,0-4.63.19-7.84,1.38,3.48-4.66-2.92-4.01-6.12-4.79,1.16-4.71.85-9.48,2.03-14.29l-4.77-1.36c7.45,1.91,4-4.25,6.1-5.86.76-.58,16.56,2.31,18.85,3.08-.44,2.7-1.68,20.44-2.47,21.16Z"/>
    <path class="cls-1" d="M346.39,475.06c-2.13-.61-5.38-.08-7.18-.31-.7-.09-1.55-1.63-2.36-1.05-.25.18.61.88.5,1.2-.71,1.99-5.42,1.39-4.58.17.08-.12,1.53.23,1.36-2.05l-7.47-.72c-.82-.85,1.79-10.36,1.37-12.56-.18-.93-2.32.35-2.08-1.04.74-.17,2.61.44,2.74-.4.38-2.57.4-5.82.67-8.47l19.49,3.38-2.45,21.84Z"/>
    <path class="cls-1" d="M352.43,426.08c-.03,2.67-1.93,20.88-2.76,21.59-1.64,1.38-4.59-.52-6.16-.42s-4.05,1.77-4.66,1.62c-1.56-.37-1.79-2.23-2.84-2.67-1.67-.7-4.17-.38-5.99-1.14l3.51-21.7c.82-.51,18.39,1.91,18.9,2.72Z"/>
    <path class="cls-1" d="M353.17,607.32c.76.79-2.05,20.5-2.89,21.58-.31.39-2.84,1.93-3.2,1.56-.12-4.95-2.13-.7-2.39-.68-.76.08.23-1.7-1.01-1.37-.28,3.3-2.36.86-4.35,1.33-.69.16-.19,1.62-.77,1.39-1.87-.74.09-3.69-.35-4.08-.99.11-6.54-.48-6.78-.72-1.06-1.1,2.22-14.07,1.33-14.96-.36-.36-2.89.76-2.73-.67,5.17,1.05,2.79-2.34,4.14-6.08l19,2.71Z"/>
    <path class="cls-1" d="M364.8,526.86c-.87,3.08-1.81,20.46-2.83,21.71-.19.24-4.35,1-4.68.77l.69-1.35h-2.06s.69,1.35.69,1.35c-2.3-1.01-4.25.98-6.47.73-2.53-.29-.54-2.46-1.66-3.14-.97-.59-5.74-.52-6.17-1.02-.71-.82,2.94-18.87,3.35-21.5l19.13,2.44Z"/>
    <path class="cls-1" d="M373.62,468.2c-2.27,1.41-4.75-.68-6.25-.53-.28.03-5.11,1.48-5.33,1.66-.36.29-.92,2.87-2.01,1.65-.29-.32.79-3.89.67-4.05-.72-.94-5.72-.23-6.51-1.35-1.31-1.84,2.36-18.25,2.43-21.86l19.48,3.38-2.48,21.11Z"/>
    <path class="cls-1" d="M357.86,575.81c-.18.12-4.04.83-4.26.82-.75-.06-.32-2.42-2.78-2.08-.26.04-.32,1.15-.87,1.36-5.56,2.15-3.87-1.14-5.37-2.08-1.45-.91-4.62-.17-5.39-1.25-1.23-1.71,2.21-18.51,2.44-21.86,2.54,1.1,17.97,2.22,18.79,3.36.71.99-1.62,21.15-2.55,21.74Z"/>
    <path class="cls-1" d="M368.13,500.35c.14,2.69-1.84,21.69-2.73,22.38-.13.1-2.61-.45-3.33.03l.69-1.35c-3.89-.17-7.19,1.9-10.91,2.72-.25-1.04.9-.39,1.32-1.18.26-.49.86-2.77.72-2.89l-7.51-.69,2.8-21.74,18.95,2.73Z"/>
    <path class="cls-1" d="M372.22,473.77c-.87,7.13-1.3,14.55-3.3,21.44l1.32.97c-1.8.93-2.14-1.37-2.47-1.39-.79-.06-1.76.66-2.56.53-1.1-.18-2.05-1.37-3.41-1.21-.4.05-.41,1.07-.96,1.34-.58.28-4.05,1.62-4.24,1.42,2.39-5.38-5.28-3.05-6.54-4.73-.77-1.04,2.02-12.17,1.84-14.72-.11-1.64-1.59-.45-1.44-1.67,3.89,1.04.8-3.84,2.7-5.16l19.03,3.19Z"/>
    <path class="cls-1" d="M379.78,419.87c-.34,2.72-2.21,22.38-3.73,22.46-3.52-2.77-8.23-.18-11.93.69l.68-3.4-7.5-.69,3.36-21.52c1.59-1.11,16.03,2.58,19.13,2.45Z"/>
    <path class="cls-1" d="M345.7,716.33l2.8-21.73c.83-.7,18.74,2.27,19.41,3.29l-3.07,20.88c-1.77,1.24-16.15-2.88-19.14-2.44Z"/>
    <path class="cls-2" d="M337.52,449.17c.46.24-.4,1.16-1.36.67-.46-.24.4-1.16,1.36-.67Z"/>
  </g>
  <path class="cls-1" d="M620.45,474.69c.11-6.95,1.75-14.72.66-21.74-1.04-6.7-7.28-1.09-10.56-.43-.64.13-3.76.59-3.7-.63h3.41v-23.52l-138.39-28.27c-.73,2.85.71,5.7.95,8.75.24,3.07-.25,12.79.58,14.9,1.01,2.58,13.12,3.92,16.18,4.29.09.87-.56.52-1.01.8l92.16,18.76s.76,1.33.19,1.33c-.4,0-58.59-11.75-92.77-18.65-.02.95.2,1.32,1.42,1.17v.66c-3.32,0,1.58,4.5-1.36,4.43,2.17,1.45.72,3.49.92,5.57,2.36,25.55,5.13,50.62,6.29,74.62l2.25,17.98-1.28.66c1.74,3.98,2.02,10.01,2.37,14.31.13,1.53-.96,6.32,1.03,5.81v.66c-2.19-.61-.48,2.74-.4,4.69.13,2.94-.23,9.49.38,11.93.14.55.92.5,1.38.44.15,1.23-1.33,0-1.44,1.67-.3,4.63.86,6-.61,10.94-.11.37,1.35.26,1.42.73.12.84-.21,9.74-.31,11.41-.68,10.87-3.95,23.39-3.55,34.05.23,6.35,1.64,14.63,2.31,19.89.22,1.7-1.69,5.65.81,5.14.31,1.16-.97.42-1.25.74-.1.11,0,2.87.02,3.03.33,2.71.95,7.07,1.26,10.88,1.88,23.09,4.01,46.65,5.12,70.17l1.67,16.73c4.4,1.46,8.59,3.09,12.95,4.77.28.11.51.44.68.68.18.09.5-.09.68,0l.68.68c.19.09.49-.09.68,0l.68.68c.18.09.5-.09.68,0,3.7,1.9,7.54,3.91,10.57,6.8.66,0,1.91-3.22,2.08-4.04,1.27-6.11.82-21.09,1.01-28.29.24-8.83-1.29-21.92.67-30.02.25-1.03-.48-1.2,1.35-1.02.52,4.97,1.94,9.81,2.63,14.75,3.04,21.72,1.9,44.4,2.14,66.35.01,1.29-.17,2.89,0,4.09.35.08.62.31.68.68.07.43-.05.92,0,1.36v.68c1.29,1.67,1.53,1.47,3.41,2.04,13.29,4.04,28.47,5.9,41.99,9.56,1.73.69,2.76-2.36,2.97-3.81,1-7.2-.17-17.53.01-25.2.07-3.01,1.33-6.22.7-9.5-.3-1.55-5.12-6.63-6.26-8.73-5.73-10.48-8.13-33.47-9.99-45.9-5.16-34.56-9.84-71.35-11.68-106.23-.55-10.46-2.66-31.18,2.42-39.82,5.07-8.63,17.88-14.6,27.41-16.22,6.34-1.08,16.45.09,21.48-1.7,2.83-1.01,3.08-8.21,3.25-11.06,1.27-21.11-.38-44.09-.06-65.48Z"/>
</svg>